<?xml version="1.0" encoding="utf-8"?>
<!-- Generator: Adobe Illustrator 18.0.0, SVG Export Plug-In . SVG Version: 6.00 Build 0)  -->
<!DOCTYPE svg PUBLIC "-//W3C//DTD SVG 1.1//EN" "http://www.w3.org/Graphics/SVG/1.1/DTD/svg11.dtd">
<svg version="1.1" xmlns="http://www.w3.org/2000/svg" xmlns:xlink="http://www.w3.org/1999/xlink" x="0px" y="0px"
	 viewBox="0 0 1000 1000" enable-background="new 0 0 1000 1000" xml:space="preserve">
<g id="dg-paths">
	<g>
		<line fill="none" stroke="#000000" stroke-miterlimit="10" x1="643.3" y1="170.9" x2="569.1" y2="170.5"/>
		<line fill="none" stroke="#000000" stroke-miterlimit="10" x1="268.5" y1="168.8" x2="329" y2="169.1"/>
		<line fill="none" stroke="#000000" stroke-miterlimit="10" x1="744.4" y1="171.5" x2="643.3" y2="170.9"/>
		<line fill="none" stroke="#000000" stroke-miterlimit="10" x1="526.1" y1="170.2" x2="457.5" y2="169.8"/>
		<line fill="none" stroke="#000000" stroke-miterlimit="10" x1="457.5" y1="169.8" x2="412.2" y2="169.6"/>
		<line fill="none" stroke="#000000" stroke-miterlimit="10" x1="329" y1="169.1" x2="357.8" y2="169.3"/>
		<line fill="none" stroke="#000000" stroke-miterlimit="10" x1="569.1" y1="170.5" x2="526.1" y2="170.2"/>
		<line fill="none" stroke="#000000" stroke-miterlimit="10" x1="268.5" y1="168.8" x2="159" y2="168.1"/>
		<line fill="none" stroke="#000000" stroke-miterlimit="10" x1="412.2" y1="169.6" x2="357.8" y2="169.3"/>
		<line fill="none" stroke="#000000" stroke-miterlimit="10" x1="568.6" y1="237.1" x2="516" y2="237.2"/>
		<line fill="none" stroke="#000000" stroke-miterlimit="10" x1="650.7" y1="236.9" x2="568.6" y2="237.1"/>
		<line fill="none" stroke="#000000" stroke-miterlimit="10" x1="137.7" y1="237.8" x2="256" y2="237.6"/>
		<line fill="none" stroke="#000000" stroke-miterlimit="10" x1="797.9" y1="236.7" x2="650.7" y2="236.9"/>
		<line fill="none" stroke="#000000" stroke-miterlimit="10" x1="797.9" y1="236.7" x2="825.3" y2="236.7"/>
		<line fill="none" stroke="#000000" stroke-miterlimit="10" x1="316.4" y1="237.5" x2="347" y2="237.4"/>
		<line fill="none" stroke="#000000" stroke-miterlimit="10" x1="347" y1="237.4" x2="398.3" y2="237.4"/>
		<line fill="none" stroke="#000000" stroke-miterlimit="10" x1="450.4" y1="237.3" x2="398.3" y2="237.4"/>
		<line fill="none" stroke="#000000" stroke-miterlimit="10" x1="256" y1="237.6" x2="316.4" y2="237.5"/>
		<line fill="none" stroke="#000000" stroke-miterlimit="10" x1="516" y1="237.2" x2="450.4" y2="237.3"/>
		<line fill="none" stroke="#000000" stroke-miterlimit="10" x1="304.8" y1="299.9" x2="337.1" y2="299.8"/>
		<line fill="none" stroke="#000000" stroke-miterlimit="10" x1="679.2" y1="298.5" x2="657.5" y2="298.5"/>
		<line fill="none" stroke="#000000" stroke-miterlimit="10" x1="244.7" y1="300.1" x2="304.8" y2="299.9"/>
		<line fill="none" stroke="#000000" stroke-miterlimit="10" x1="244.7" y1="300.1" x2="87.1" y2="300.7"/>
		<line fill="none" stroke="#000000" stroke-miterlimit="10" x1="385.5" y1="299.6" x2="443.8" y2="299.4"/>
		<line fill="none" stroke="#000000" stroke-miterlimit="10" x1="506.6" y1="299.1" x2="443.8" y2="299.4"/>
		<line fill="none" stroke="#000000" stroke-miterlimit="10" x1="568.2" y1="298.9" x2="506.6" y2="299.1"/>
		<line fill="none" stroke="#000000" stroke-miterlimit="10" x1="337.1" y1="299.8" x2="385.5" y2="299.6"/>
		<line fill="none" stroke="#000000" stroke-miterlimit="10" x1="657.5" y1="298.5" x2="568.2" y2="298.9"/>
		<line fill="none" stroke="#000000" stroke-miterlimit="10" x1="793.9" y1="353.8" x2="929.8" y2="351.3"/>
		<line fill="none" stroke="#000000" stroke-miterlimit="10" x1="663.9" y1="356.3" x2="567.8" y2="358.1"/>
		<line fill="none" stroke="#000000" stroke-miterlimit="10" x1="497.5" y1="359.4" x2="437.4" y2="360.5"/>
		<line fill="none" stroke="#000000" stroke-miterlimit="10" x1="327.1" y1="362.6" x2="372.7" y2="361.8"/>
		<line fill="none" stroke="#000000" stroke-miterlimit="10" x1="567.8" y1="358.1" x2="497.5" y2="359.4"/>
		<line fill="none" stroke="#000000" stroke-miterlimit="10" x1="372.7" y1="361.8" x2="437.4" y2="360.5"/>
		<line fill="none" stroke="#000000" stroke-miterlimit="10" x1="293.1" y1="363.3" x2="327.1" y2="362.6"/>
		<line fill="none" stroke="#000000" stroke-miterlimit="10" x1="793.9" y1="353.8" x2="663.9" y2="356.3"/>
		<line fill="none" stroke="#000000" stroke-miterlimit="10" x1="233.1" y1="364.4" x2="293.1" y2="363.3"/>
		<line fill="none" stroke="#000000" stroke-miterlimit="10" x1="233.1" y1="364.4" x2="95" y2="367"/>
		<line fill="none" stroke="#000000" stroke-miterlimit="10" x1="222.4" y1="423.8" x2="282.1" y2="422.6"/>
		<line fill="none" stroke="#000000" stroke-miterlimit="10" x1="142.2" y1="425.4" x2="222.4" y2="423.8"/>
		<line fill="none" stroke="#000000" stroke-miterlimit="10" x1="282.1" y1="422.6" x2="317.6" y2="421.9"/>
		<line fill="none" stroke="#000000" stroke-miterlimit="10" x1="791.9" y1="412.4" x2="670.4" y2="414.9"/>
		<line fill="none" stroke="#000000" stroke-miterlimit="10" x1="816.3" y1="411.9" x2="791.9" y2="412.4"/>
		<line fill="none" stroke="#000000" stroke-miterlimit="10" x1="360.5" y1="421.1" x2="431.1" y2="419.6"/>
		<line fill="none" stroke="#000000" stroke-miterlimit="10" x1="488.6" y1="418.5" x2="431.1" y2="419.6"/>
		<line fill="none" stroke="#000000" stroke-miterlimit="10" x1="670.4" y1="414.9" x2="567.4" y2="416.9"/>
		<line fill="none" stroke="#000000" stroke-miterlimit="10" x1="567.4" y1="416.9" x2="488.6" y2="418.5"/>
		<line fill="none" stroke="#000000" stroke-miterlimit="10" x1="317.6" y1="421.9" x2="360.5" y2="421.1"/>
		<line fill="none" stroke="#000000" stroke-miterlimit="10" x1="337.3" y1="534" x2="419.2" y2="532.1"/>
		<line fill="none" stroke="#000000" stroke-miterlimit="10" x1="788.1" y1="523.5" x2="682.8" y2="525.9"/>
		<line fill="none" stroke="#000000" stroke-miterlimit="10" x1="847.8" y1="522.1" x2="788.1" y2="523.5"/>
		<line fill="none" stroke="#000000" stroke-miterlimit="10" x1="566.6" y1="528.6" x2="471.6" y2="530.9"/>
		<line fill="none" stroke="#000000" stroke-miterlimit="10" x1="682.8" y1="525.9" x2="566.6" y2="528.6"/>
		<line fill="none" stroke="#000000" stroke-miterlimit="10" x1="299.7" y1="534.9" x2="337.3" y2="534"/>
		<line fill="none" stroke="#000000" stroke-miterlimit="10" x1="201.9" y1="537.2" x2="127.6" y2="538.9"/>
		<line fill="none" stroke="#000000" stroke-miterlimit="10" x1="261.1" y1="535.8" x2="299.7" y2="534.9"/>
		<line fill="none" stroke="#000000" stroke-miterlimit="10" x1="201.9" y1="537.2" x2="261.1" y2="535.8"/>
		<line fill="none" stroke="#000000" stroke-miterlimit="10" x1="471.6" y1="530.9" x2="419.2" y2="532.1"/>
		<line fill="none" stroke="#000000" stroke-miterlimit="10" x1="282.1" y1="645.1" x2="313.7" y2="649"/>
		<line fill="none" stroke="#000000" stroke-miterlimit="10" x1="241.8" y1="640.1" x2="282.1" y2="645.1"/>
		<line fill="none" stroke="#000000" stroke-miterlimit="10" x1="781.9" y1="706.6" x2="701.7" y2="696.7"/>
		<line fill="none" stroke="#000000" stroke-miterlimit="10" x1="510.6" y1="673.2" x2="565.5" y2="680"/>
		<line fill="none" stroke="#000000" stroke-miterlimit="10" x1="565.5" y1="680" x2="701.7" y2="696.7"/>
		<line fill="none" stroke="#000000" stroke-miterlimit="10" x1="313.7" y1="649" x2="405.7" y2="660.3"/>
		<line fill="none" stroke="#000000" stroke-miterlimit="10" x1="168" y1="631" x2="184.6" y2="633.1"/>
		<line fill="none" stroke="#000000" stroke-miterlimit="10" x1="405.7" y1="660.3" x2="451.2" y2="665.9"/>
		<line fill="none" stroke="#000000" stroke-miterlimit="10" x1="510.6" y1="673.2" x2="451.2" y2="665.9"/>
		<line fill="none" stroke="#000000" stroke-miterlimit="10" x1="816.3" y1="710.8" x2="781.9" y2="706.6"/>
		<line fill="none" stroke="#000000" stroke-miterlimit="10" x1="184.6" y1="633.1" x2="241.8" y2="640.1"/>
		<line fill="none" stroke="#000000" stroke-miterlimit="10" x1="784.1" y1="642.3" x2="696.8" y2="652.2"/>
		<line fill="none" stroke="#000000" stroke-miterlimit="10" x1="403" y1="685.3" x2="449" y2="680.1"/>
		<line fill="none" stroke="#000000" stroke-miterlimit="10" x1="565.6" y1="667" x2="510.6" y2="673.2"/>
		<line fill="none" stroke="#000000" stroke-miterlimit="10" x1="170.4" y1="711.6" x2="229.8" y2="704.9"/>
		<line fill="none" stroke="#000000" stroke-miterlimit="10" x1="696.8" y1="652.2" x2="565.6" y2="667"/>
		<line fill="none" stroke="#000000" stroke-miterlimit="10" x1="303.9" y1="696.5" x2="403" y2="685.3"/>
		<line fill="none" stroke="#000000" stroke-miterlimit="10" x1="170.4" y1="711.6" x2="137.7" y2="715.3"/>
		<line fill="none" stroke="#000000" stroke-miterlimit="10" x1="273.4" y1="700" x2="303.9" y2="696.5"/>
		<line fill="none" stroke="#000000" stroke-miterlimit="10" x1="449" y1="680.1" x2="510.6" y2="673.2"/>
		<line fill="none" stroke="#000000" stroke-miterlimit="10" x1="883.7" y1="631" x2="784.1" y2="642.3"/>
		<line fill="none" stroke="#000000" stroke-miterlimit="10" x1="229.8" y1="704.9" x2="273.4" y2="700"/>
		<line fill="none" stroke="#000000" stroke-miterlimit="10" x1="270" y1="861.6" x2="384.9" y2="856.7"/>
		<line fill="none" stroke="#000000" stroke-miterlimit="10" x1="422.6" y1="855.1" x2="564.3" y2="849.1"/>
		<line fill="none" stroke="#000000" stroke-miterlimit="10" x1="717.9" y1="842.6" x2="777.3" y2="840"/>
		<line fill="none" stroke="#000000" stroke-miterlimit="10" x1="384.9" y1="856.7" x2="422.6" y2="855.1"/>
		<line fill="none" stroke="#000000" stroke-miterlimit="10" x1="200.3" y1="864.5" x2="168" y2="865.9"/>
		<line fill="none" stroke="#000000" stroke-miterlimit="10" x1="564.3" y1="849.1" x2="717.9" y2="842.6"/>
		<line fill="none" stroke="#000000" stroke-miterlimit="10" x1="270" y1="861.6" x2="247.6" y2="862.5"/>
		<line fill="none" stroke="#000000" stroke-miterlimit="10" x1="883.7" y1="835.5" x2="777.3" y2="840"/>
		<line fill="none" stroke="#000000" stroke-miterlimit="10" x1="200.3" y1="864.5" x2="247.6" y2="862.5"/>
		<line fill="none" stroke="#000000" stroke-miterlimit="10" x1="246.7" y1="974.9" x2="270" y2="861.6"/>
		<line fill="none" stroke="#000000" stroke-miterlimit="10" x1="313.7" y1="649" x2="303.9" y2="696.5"/>
		<line fill="none" stroke="#000000" stroke-miterlimit="10" x1="398.3" y1="237.4" x2="385.5" y2="299.6"/>
		<line fill="none" stroke="#000000" stroke-miterlimit="10" x1="412.2" y1="169.6" x2="398.3" y2="237.4"/>
		<line fill="none" stroke="#000000" stroke-miterlimit="10" x1="428.7" y1="89.5" x2="423.7" y2="113.7"/>
		<line fill="none" stroke="#000000" stroke-miterlimit="10" x1="385.5" y1="299.6" x2="372.7" y2="361.8"/>
		<line fill="none" stroke="#000000" stroke-miterlimit="10" x1="360.5" y1="421.1" x2="337.3" y2="534"/>
		<line fill="none" stroke="#000000" stroke-miterlimit="10" x1="372.7" y1="361.8" x2="360.5" y2="421.1"/>
		<line fill="none" stroke="#000000" stroke-miterlimit="10" x1="337.3" y1="534" x2="313.7" y2="649"/>
		<line fill="none" stroke="#000000" stroke-miterlimit="10" x1="270" y1="861.6" x2="303.9" y2="696.5"/>
		<line fill="none" stroke="#000000" stroke-miterlimit="10" x1="423.7" y1="113.7" x2="412.2" y2="169.6"/>
		<line fill="none" stroke="#000000" stroke-miterlimit="10" x1="717.9" y1="842.6" x2="701.7" y2="696.7"/>
		<line fill="none" stroke="#000000" stroke-miterlimit="10" x1="634.3" y1="89.5" x2="637.5" y2="117.9"/>
		<line fill="none" stroke="#000000" stroke-miterlimit="10" x1="701.7" y1="696.7" x2="696.8" y2="652.2"/>
		<line fill="none" stroke="#000000" stroke-miterlimit="10" x1="670.4" y1="414.9" x2="682.8" y2="525.9"/>
		<line fill="none" stroke="#000000" stroke-miterlimit="10" x1="735.4" y1="1000" x2="717.9" y2="842.6"/>
		<line fill="none" stroke="#000000" stroke-miterlimit="10" x1="657.5" y1="298.5" x2="663.9" y2="356.3"/>
		<line fill="none" stroke="#000000" stroke-miterlimit="10" x1="696.8" y1="652.2" x2="682.8" y2="525.9"/>
		<line fill="none" stroke="#000000" stroke-miterlimit="10" x1="670.4" y1="414.9" x2="663.9" y2="356.3"/>
		<line fill="none" stroke="#000000" stroke-miterlimit="10" x1="657.5" y1="298.5" x2="650.7" y2="236.9"/>
		<line fill="none" stroke="#000000" stroke-miterlimit="10" x1="650.7" y1="236.9" x2="643.3" y2="170.9"/>
		<line fill="none" stroke="#000000" stroke-miterlimit="10" x1="637.5" y1="117.9" x2="643.3" y2="170.9"/>
		<line fill="none" stroke="#000000" stroke-miterlimit="10" x1="534.3" y1="115.9" x2="526.1" y2="170.2"/>
		<line fill="none" stroke="#000000" stroke-miterlimit="10" x1="471.6" y1="530.9" x2="488.6" y2="418.5"/>
		<line fill="none" stroke="#000000" stroke-miterlimit="10" x1="451.2" y1="665.9" x2="471.6" y2="530.9"/>
		<line fill="none" stroke="#000000" stroke-miterlimit="10" x1="422.6" y1="855.1" x2="449" y2="680.1"/>
		<line fill="none" stroke="#000000" stroke-miterlimit="10" x1="406.2" y1="963.6" x2="422.6" y2="855.1"/>
		<line fill="none" stroke="#000000" stroke-miterlimit="10" x1="449" y1="680.1" x2="451.2" y2="665.9"/>
		<line fill="none" stroke="#000000" stroke-miterlimit="10" x1="488.6" y1="418.5" x2="497.5" y2="359.4"/>
		<line fill="none" stroke="#000000" stroke-miterlimit="10" x1="497.5" y1="359.4" x2="506.6" y2="299.1"/>
		<line fill="none" stroke="#000000" stroke-miterlimit="10" x1="526.1" y1="170.2" x2="516" y2="237.2"/>
		<line fill="none" stroke="#000000" stroke-miterlimit="10" x1="506.6" y1="299.1" x2="516" y2="237.2"/>
		<line fill="none" stroke="#000000" stroke-miterlimit="10" x1="542.2" y1="63.6" x2="534.3" y2="115.9"/>
		<line fill="none" stroke="#000000" stroke-miterlimit="10" x1="316.4" y1="237.5" x2="304.8" y2="299.9"/>
		<line fill="none" stroke="#000000" stroke-miterlimit="10" x1="282.1" y1="422.6" x2="261.1" y2="535.8"/>
		<line fill="none" stroke="#000000" stroke-miterlimit="10" x1="339.6" y1="112.1" x2="329" y2="169.1"/>
		<line fill="none" stroke="#000000" stroke-miterlimit="10" x1="350" y1="55.8" x2="339.6" y2="112.1"/>
		<line fill="none" stroke="#000000" stroke-miterlimit="10" x1="304.8" y1="299.9" x2="293.1" y2="363.3"/>
		<line fill="none" stroke="#000000" stroke-miterlimit="10" x1="241.8" y1="640.1" x2="229.8" y2="704.9"/>
		<line fill="none" stroke="#000000" stroke-miterlimit="10" x1="229.8" y1="704.9" x2="200.3" y2="864.5"/>
		<line fill="none" stroke="#000000" stroke-miterlimit="10" x1="316.4" y1="237.5" x2="329" y2="169.1"/>
		<line fill="none" stroke="#000000" stroke-miterlimit="10" x1="293.1" y1="363.3" x2="282.1" y2="422.6"/>
		<line fill="none" stroke="#000000" stroke-miterlimit="10" x1="261.1" y1="535.8" x2="241.8" y2="640.1"/>
		<line fill="none" stroke="#000000" stroke-miterlimit="10" x1="200.3" y1="864.5" x2="187.1" y2="935.5"/>
		<line fill="none" stroke="#000000" stroke-miterlimit="10" x1="201.9" y1="537.2" x2="184.6" y2="633.1"/>
		<line fill="none" stroke="#000000" stroke-miterlimit="10" x1="278.9" y1="110.9" x2="268.5" y2="168.8"/>
		<line fill="none" stroke="#000000" stroke-miterlimit="10" x1="256" y1="237.6" x2="268.5" y2="168.8"/>
		<line fill="none" stroke="#000000" stroke-miterlimit="10" x1="244.7" y1="300.1" x2="233.1" y2="364.4"/>
		<line fill="none" stroke="#000000" stroke-miterlimit="10" x1="170.4" y1="711.6" x2="184.6" y2="633.1"/>
		<line fill="none" stroke="#000000" stroke-miterlimit="10" x1="244.7" y1="300.1" x2="256" y2="237.6"/>
		<line fill="none" stroke="#000000" stroke-miterlimit="10" x1="292.7" y1="34.4" x2="278.9" y2="110.9"/>
		<line fill="none" stroke="#000000" stroke-miterlimit="10" x1="170.4" y1="711.6" x2="137.7" y2="892.8"/>
		<line fill="none" stroke="#000000" stroke-miterlimit="10" x1="233.1" y1="364.4" x2="222.4" y2="423.8"/>
		<line fill="none" stroke="#000000" stroke-miterlimit="10" x1="201.9" y1="537.2" x2="222.4" y2="423.8"/>
		<line fill="none" stroke="#000000" stroke-miterlimit="10" x1="339.6" y1="112.1" x2="278.9" y2="110.9"/>
		<line fill="none" stroke="#000000" stroke-miterlimit="10" x1="159" y1="108.6" x2="278.9" y2="110.9"/>
		<line fill="none" stroke="#000000" stroke-miterlimit="10" x1="534.3" y1="115.9" x2="463.4" y2="114.5"/>
		<line fill="none" stroke="#000000" stroke-miterlimit="10" x1="569.5" y1="116.6" x2="534.3" y2="115.9"/>
		<line fill="none" stroke="#000000" stroke-miterlimit="10" x1="366.8" y1="112.6" x2="339.6" y2="112.1"/>
		<line fill="none" stroke="#000000" stroke-miterlimit="10" x1="463.4" y1="114.5" x2="423.7" y2="113.7"/>
		<line fill="none" stroke="#000000" stroke-miterlimit="10" x1="792.7" y1="120.9" x2="637.5" y2="117.9"/>
		<line fill="none" stroke="#000000" stroke-miterlimit="10" x1="637.5" y1="117.9" x2="569.5" y2="116.6"/>
		<line fill="none" stroke="#000000" stroke-miterlimit="10" x1="423.7" y1="113.7" x2="366.8" y2="112.6"/>
		<line fill="none" stroke="#000000" stroke-miterlimit="10" x1="566.6" y1="528.6" x2="565.6" y2="667"/>
		<line fill="none" stroke="#000000" stroke-miterlimit="10" x1="565.5" y1="680" x2="565.6" y2="667"/>
		<line fill="none" stroke="#000000" stroke-miterlimit="10" x1="563.5" y1="963.6" x2="564.3" y2="849.1"/>
		<line fill="none" stroke="#000000" stroke-miterlimit="10" x1="570.3" y1="6.3" x2="569.5" y2="116.6"/>
		<line fill="none" stroke="#000000" stroke-miterlimit="10" x1="566.6" y1="528.6" x2="567.4" y2="416.9"/>
		<line fill="none" stroke="#000000" stroke-miterlimit="10" x1="567.4" y1="416.9" x2="567.8" y2="358.1"/>
		<line fill="none" stroke="#000000" stroke-miterlimit="10" x1="564.3" y1="849.1" x2="565.5" y2="680"/>
		<line fill="none" stroke="#000000" stroke-miterlimit="10" x1="567.8" y1="358.1" x2="568.2" y2="298.9"/>
		<line fill="none" stroke="#000000" stroke-miterlimit="10" x1="568.6" y1="237.1" x2="569.1" y2="170.5"/>
		<line fill="none" stroke="#000000" stroke-miterlimit="10" x1="569.5" y1="116.6" x2="569.1" y2="170.5"/>
		<line fill="none" stroke="#000000" stroke-miterlimit="10" x1="568.2" y1="298.9" x2="568.6" y2="237.1"/>
		<line fill="none" stroke="#000000" stroke-miterlimit="10" x1="457.5" y1="169.8" x2="450.4" y2="237.3"/>
		<line fill="none" stroke="#000000" stroke-miterlimit="10" x1="443.8" y1="299.4" x2="437.4" y2="360.5"/>
		<line fill="none" stroke="#000000" stroke-miterlimit="10" x1="437.4" y1="360.5" x2="431.1" y2="419.6"/>
		<line fill="none" stroke="#000000" stroke-miterlimit="10" x1="450.4" y1="237.3" x2="443.8" y2="299.4"/>
		<line fill="none" stroke="#000000" stroke-miterlimit="10" x1="373.6" y1="963.6" x2="384.9" y2="856.7"/>
		<line fill="none" stroke="#000000" stroke-miterlimit="10" x1="463.4" y1="114.5" x2="457.5" y2="169.8"/>
		<line fill="none" stroke="#000000" stroke-miterlimit="10" x1="431.1" y1="419.6" x2="419.2" y2="532.1"/>
		<line fill="none" stroke="#000000" stroke-miterlimit="10" x1="419.2" y1="532.1" x2="405.7" y2="660.3"/>
		<line fill="none" stroke="#000000" stroke-miterlimit="10" x1="403" y1="685.3" x2="405.7" y2="660.3"/>
		<line fill="none" stroke="#000000" stroke-miterlimit="10" x1="474.2" y1="11.9" x2="463.4" y2="114.5"/>
		<line fill="none" stroke="#000000" stroke-miterlimit="10" x1="384.9" y1="856.7" x2="403" y2="685.3"/>
		<line fill="none" stroke="#000000" stroke-miterlimit="10" x1="299.7" y1="534.9" x2="282.1" y2="645.1"/>
		<line fill="none" stroke="#000000" stroke-miterlimit="10" x1="227.6" y1="988.3" x2="247.6" y2="862.5"/>
		<line fill="none" stroke="#000000" stroke-miterlimit="10" x1="347" y1="237.4" x2="337.1" y2="299.8"/>
		<line fill="none" stroke="#000000" stroke-miterlimit="10" x1="282.1" y1="645.1" x2="273.4" y2="700"/>
		<line fill="none" stroke="#000000" stroke-miterlimit="10" x1="337.1" y1="299.8" x2="327.1" y2="362.6"/>
		<line fill="none" stroke="#000000" stroke-miterlimit="10" x1="357.8" y1="169.3" x2="347" y2="237.4"/>
		<line fill="none" stroke="#000000" stroke-miterlimit="10" x1="379.2" y1="34.4" x2="366.8" y2="112.6"/>
		<line fill="none" stroke="#000000" stroke-miterlimit="10" x1="317.6" y1="421.9" x2="299.7" y2="534.9"/>
		<line fill="none" stroke="#000000" stroke-miterlimit="10" x1="366.8" y1="112.6" x2="357.8" y2="169.3"/>
		<line fill="none" stroke="#000000" stroke-miterlimit="10" x1="273.4" y1="700" x2="247.6" y2="862.5"/>
		<line fill="none" stroke="#000000" stroke-miterlimit="10" x1="327.1" y1="362.6" x2="317.6" y2="421.9"/>
		<line fill="none" stroke="#000000" stroke-miterlimit="10" x1="797.9" y1="236.7" x2="805.1" y2="26.6"/>
		<line fill="none" stroke="#000000" stroke-miterlimit="10" x1="797.9" y1="236.7" x2="793.9" y2="353.8"/>
		<line fill="none" stroke="#000000" stroke-miterlimit="10" x1="793.9" y1="353.8" x2="791.9" y2="412.4"/>
		<line fill="none" stroke="#000000" stroke-miterlimit="10" x1="781.9" y1="706.6" x2="784.1" y2="642.3"/>
		<line fill="none" stroke="#000000" stroke-miterlimit="10" x1="772.5" y1="981.6" x2="777.3" y2="840"/>
		<line fill="none" stroke="#000000" stroke-miterlimit="10" x1="784.1" y1="642.3" x2="788.1" y2="523.5"/>
		<line fill="none" stroke="#000000" stroke-miterlimit="10" x1="791.9" y1="412.4" x2="788.1" y2="523.5"/>
		<line fill="none" stroke="#000000" stroke-miterlimit="10" x1="781.9" y1="706.6" x2="777.3" y2="840"/>
	</g>
</g>
<g id="dg-blocks">
	<rect x="168" y="183.9" width="71.9" height="42.7"/>
	<rect x="379.2" y="431" width="27" height="91"/>
	<rect x="451.7" y="367" fill="#333333" width="29.8" height="40.4"/>
	<rect x="466.6" y="176" fill="#333333" width="39.6" height="50.6"/>
	<rect x="500" y="425.4" fill="#B3B3B3" width="51.2" height="88.2"/>
	<rect x="313" y="705.2" fill="#B3B3B3" width="60.7" height="136"/>
	<rect x="354.5" y="550.1" fill="#B3B3B3" width="38.2" height="80.9"/>
	<rect x="343.3" y="306.3" fill="#B3B3B3" width="22.5" height="44.9"/>
	<rect x="406.2" y="244.5" fill="#B3B3B3" width="30.3" height="43.8"/>
	<rect x="581.5" y="538.9" fill="#B3B3B3" width="89.9" height="104.5"/>
	<rect x="687.4" y="244.5" fill="#B3B3B3" width="88" height="100"/>
	<rect x="570.3" y="696.2" fill="#333333" width="89.9" height="133.7"/>
	<rect x="474.2" y="544.7" fill="#333333" width="25.8" height="113.3"/>
	<rect x="512.4" y="558" fill="#333333" width="23" height="100"/>
	<rect x="595" y="431" fill="#333333" width="31.5" height="82.6"/>
	<rect x="239.9" y="447.9" fill="#333333" width="13.5" height="63.5"/>
	<rect x="253.4" y="315.3" fill="#333333" width="23.6" height="29.2"/>
	<rect x="451.7" y="710.8" fill="#333333" width="59" height="111.2"/>
	<rect x="523.9" y="696.2" fill="#333333" width="27.2" height="80.9"/>
	<rect x="525.9" y="790.6" fill="#333333" width="25.3" height="44.9"/>
	<rect x="587.1" y="886.1" fill="#333333" width="77.5" height="95.5"/>
</g>
</svg>
